{"title":"Juicy J Ft. Chris Brown &amp; Wiz Khalifa - Talkin' Bout [Music ","uid":9822807,"size":64072608,"categoryP":"video","categoryS":"music_videos","magnet":"?xt=urn:btih:90a1022fd6fba6c2b2c680e906fd18a762a10ccb&amp;dn=Juicy+J+Ft.+Chris+Brown+%26amp%3B+Wiz+Khalifa+-+Talkin%27+Bout+%5BMusic+&amp;tr=udp%3A%2F%2Ftracker.openbittorrent.com%3A80&amp;tr=udp%3A%2F%2Fopen.demonii.com%3A1337&amp;tr=udp%3A%2F%2Ftracker.coppersurfer.tk%3A6969&amp;tr=udp%3A%2F%2Fexodus.desync.com%3A6969","seeders":1,"leechers":1,"uploader":"Sbyky","files":1,"time":1395721373,"description":"\n\nGeneral\nComplete name                            : Juicy J Ft. Chris Brown &amp; Wiz Khalifa - Talkin' Bout [Music Video] 720p [Sbyky].MP4\nFormat                                   : MPEG-4\nFormat profile                           : Base Media\nCodec ID                                 : isom\nFile size                                : 61.1 MiB\nDuration                                 : 4mn 22s\nOverall bit rate mode                    : Variable\nOverall bit rate                         : 1 953 Kbps\nEncoded date                             : UTC 2014-03-11 00:04:46\nTagged date                              : UTC 2014-03-11 00:04:46\n\nVideo\nID                                       : 1\nFormat                                   : AVC\nFormat/Info                              : Advanced Video Codec\nFormat profile                           : &lt;a class=&quot;__cf_email__&quot; href=&quot;/cdn-cgi/l/email-protection&quot; data-cfemail=&quot;5518343c3b1519667b64&quot;&gt;[email&amp;#160;protected]&lt;/a&gt;&lt;script cf-hash='f9e31' type=&quot;text/javascript&quot;&gt;\n/* &lt;![CDATA[ */!function(){try{var t=&quot;currentScript&quot;in document?document.currentScript:function(){for(var t=document.getElementsByTagName(&quot;script&quot;),e=t.length;e--;)if(t[e].getAttribute(&quot;cf-hash&quot;))return t[e]}();if(t&amp;&amp;t.previousSibling){var e,r,n,i,c=t.previousSibling,a=c.getAttribute(&quot;data-cfemail&quot;);if(a){for(e=&quot;&quot;,r=parseInt(a.substr(0,2),16),n=2;a.length-n;n+=2)i=parseInt(a.substr(n,2),16)^r,e+=String.fromCharCode(i);e=document.createTextNode(e),c.parentNode.replaceChild(e,c)}}}catch(u){}}();/* ]]&gt; */&lt;/script&gt;\nFormat settings, CABAC                   : Yes\nFormat settings, ReFrames                : 3 frames\nCodec ID                                 : avc1\nCodec ID/Info                            : Advanced Video Coding\nDuration                                 : 4mn 22s\nBit rate                                 : 1 824 Kbps\nWidth                                    : 1 280 pixels\nHeight                                   : 720 pixels\nDisplay aspect ratio                     : 16:9\nFrame rate mode                          : Variable\nFrame rate                               : 23.976 fps\nMinimum frame rate                       : 23.974 fps\nMaximum frame rate                       : 24.463 fps\nColor space                              : YUV\nChroma subsampling                       : 4:2:0\nBit depth                                : 8 bits\nScan type                                : Progressive\nBits/(Pixel*Frame)                       : 0.083\nStream size                              : 57.1 MiB (93%)\nEncoded date                             : UTC 2014-03-11 00:04:46\nTagged date                              : UTC 2014-03-11 00:04:46\n\nAudio\nID                                       : 2\nFormat                                   : AAC\nFormat/Info                              : Advanced Audio Codec\nFormat profile                           : LC\nCodec ID                                 : 40\nDuration                                 : 4mn 22s\nBit rate mode                            : Variable\nBit rate                                 : 126 Kbps\nChannel(s)                               : 2 channels\nChannel positions                        : Front: L R\nSampling rate                            : 44.1 KHz\nCompression mode                         : Lossy\nStream size                              : 3.93 MiB (6%)\nEncoded date                             : UTC 2014-03-11 00:04:37\nTagged date                              : UTC 2014-03-11 00:04:37\n\nShared By Sbyky\n","torrent":{"xt":"urn:btih:90a1022fd6fba6c2b2c680e906fd18a762a10ccb","amp;dn":"Juicy+J+Ft.+Chris+Brown+%26amp%3B+Wiz+Khalifa+-+Talkin%27+Bout+%5BMusic+","amp;tr":["udp%3A%2F%2Ftracker.openbittorrent.com%3A80","udp%3A%2F%2Fopen.demonii.com%3A1337","udp%3A%2F%2Ftracker.coppersurfer.tk%3A6969","udp%3A%2F%2Fexodus.desync.com%3A6969"],"infoHash":"90a1022fd6fba6c2b2c680e906fd18a762a10ccb","infoHashBuffer":{"type":"Buffer","data":[144,161,2,47,214,251,166,194,178,198,128,233,6,253,24,167,98,161,12,203]},"announce":[],"urlList":[]}}